<?xml version="1.0" encoding="utf-8"?>
<!-- Generator: Adobe Illustrator 25.4.1, SVG Export Plug-In . SVG Version: 6.00 Build 0)  -->
<svg version="1.1" id="Layer_1" xmlns="http://www.w3.org/2000/svg" xmlns:xlink="http://www.w3.org/1999/xlink" x="0px" y="0px"
	 viewBox="0 0 348 104" style="enable-background:new 0 0 348 104;" xml:space="preserve">
<style type="text/css">
	.st0{fill-rule:evenodd;clip-rule:evenodd;fill:#117A57;}
	.st1{fill:#3F3C38;}
	.st2{fill:none;stroke:#4F4F4F;stroke-miterlimit:10;}
	.st3{fill:#826640;}
	.st4{fill:none;stroke:#826640;stroke-width:0.554;stroke-miterlimit:10;}
	
		.st5{clip-path:url(#SVGID_00000153669914850874094420000009327066133912619679_);fill:url(#SVGID_00000174559886065706423240000009872401268329121157_);}
	
		.st6{clip-path:url(#SVGID_00000140707051375180600880000013113071851284404655_);fill:url(#SVGID_00000037671230323655462930000007477467435551687339_);}
	
		.st7{clip-path:url(#SVGID_00000183212584974744909340000016187822057275845783_);fill:url(#SVGID_00000170269598401433022730000002477444836054012565_);}
	
		.st8{clip-path:url(#SVGID_00000094582876910198853750000017466308185134049978_);fill:url(#SVGID_00000013895931721418784660000012736213191454651560_);}
	
		.st9{clip-path:url(#SVGID_00000096027763575171386670000003937259926510352787_);fill:url(#SVGID_00000018934296964322738210000013571409484971636156_);}
	
		.st10{clip-path:url(#SVGID_00000009560280797377170520000009294223302727934373_);fill:url(#SVGID_00000065052938493116109080000012658174140576211072_);}
</style>
<g>
	<polygon class="st0" points="125.4,17.4 136.5,17.4 136.5,14 129.6,14 129.6,12.4 135.7,12.4 135.7,9.2 129.6,9.2 129.6,7.6 
		136.5,7.6 136.5,4.2 125.4,4.2 	"/>
	<polygon class="st0" points="176.3,17.4 187.5,17.4 187.5,14 180.4,14 180.4,12.4 186.7,12.4 186.7,9.2 180.4,9.2 180.4,7.6 
		187.5,7.6 187.5,4.2 176.3,4.2 	"/>
	<polygon class="st0" points="143.1,17.4 152.9,17.4 152.9,14 147,14 147,4.2 143.1,4.2 	"/>
	<path class="st0" d="M158.7,17.4h5.8c4.5,0,6.7-2.5,6.7-6.6c0-3.3-1.6-6.6-6-6.6h-6.6V17.4z M162.7,7.6h1.3c3,0,3.2,2.3,3.2,3.1
		c0,1.2-0.4,3.2-2.9,3.2h-1.6V7.6H162.7z"/>
	<path class="st0" d="M205.2,9.1c-0.4-3.3-2.4-5.3-6-5.3c-4.1,0-6.7,2.7-6.7,6.9c0,3.9,2.4,6.9,6.7,6.9c3.8,0,6-2.9,6-5.5h-3.9
		c-0.2,1.2-0.7,2.1-2.1,2.1c-1.9,0-2.5-1.8-2.5-3.6s0.6-3.6,2.5-3.6c1.7,0,2,1.4,2.1,1.9C201.2,9.1,205.2,9.1,205.2,9.1z"/>
	<path class="st0" d="M209.2,10.8c0,4.1,2.6,6.9,6.7,6.9c4.1,0,6.7-2.9,6.7-6.9s-2.6-6.9-6.8-6.9C211.8,3.9,209.2,6.7,209.2,10.8
		 M213.1,10.8c0-3,1.6-3.6,2.6-3.6s2.6,0.7,2.6,3.6c0,3-1.6,3.6-2.6,3.6C214.8,14.4,213.1,13.7,213.1,10.8"/>
</g>
<g>
	<g>
		<g>
			<path class="st1" d="M80.5,100.6c-0.8,0-1.5-0.1-2.2-0.4c-0.6-0.2-1.3-0.6-1.8-1c-0.5-0.5-0.9-1-1.1-1.6c-0.2-0.6-0.5-1.3-0.5-2
				c0-0.8,0.1-1.5,0.5-2c0.2-0.6,0.6-1.1,1.1-1.6s1-0.8,1.8-1c0.6-0.2,1.4-0.4,2.2-0.4s1.6,0.1,2.3,0.5c0.6,0.2,1.3,0.6,1.8,1.3
				l-1.2,1c-0.4-0.4-0.8-0.6-1.3-0.9c-0.5-0.2-0.9-0.2-1.5-0.2s-1,0.1-1.5,0.2c-0.5,0.2-0.8,0.5-1.1,0.6c-0.4,0.4-0.6,0.6-0.8,1.1
				c-0.3,0.5-0.2,0.9-0.2,1.4s0.1,1,0.2,1.4c0.2,0.5,0.5,0.8,0.8,1.1c0.4,0.4,0.6,0.6,1.1,0.6c0.5,0.2,0.9,0.2,1.5,0.2
				c0.5,0,1-0.1,1.5-0.2s0.9-0.5,1.4-0.8l1,1.4c-0.6,0.5-1.1,0.6-1.9,0.9C81.9,100.6,81.1,100.6,80.5,100.6z M82.6,99v-3.8h1.7v4.1
				L82.6,99z M84,96.9h-2.8v-1.8h3L84,96.9z"/>
			<path class="st1" d="M96.7,100.4V90.2h4.2c0.9,0,1.6,0.1,2.3,0.5c0.6,0.2,1.1,0.6,1.5,1.3c0.4,0.6,0.6,1.1,0.6,1.9
				c0,0.6-0.2,1.4-0.6,1.9c-0.4,0.6-0.8,0.9-1.5,1.3c-0.6,0.4-1.4,0.5-2.3,0.5h-3.2l0.8-0.8v3.8h-1.9L96.7,100.4L96.7,100.4z
				 M98.5,96.8l-0.8-0.9h3c0.8,0,1.5-0.2,1.9-0.6c0.5-0.4,0.6-0.8,0.6-1.5s-0.2-1.1-0.6-1.5c-0.5-0.4-1-0.6-1.9-0.6h-3l0.8-0.9V96.8
				z M103.5,100.4l-2.5-3.7h1.9l2.5,3.7H103.5z"/>
			<path class="st1" d="M119.2,98.7h5.7v1.6h-7.6V90.1h7.4v1.6h-5.6L119.2,98.7L119.2,98.7z M119.1,94.5h5.1V96h-5.1V94.5z"/>
			<path class="st1" d="M135.5,100.4l4.6-10.2h1.9l4.6,10.2h-2l-3.9-9.1h0.8l-3.9,9.1H135.5z M137.6,98.1l0.6-1.5h5.5l0.5,1.5H137.6
				z"/>
			<path class="st1" d="M159.2,100.4v-8.5h-3.3v-1.6h8.6v1.6h-3.3v8.5H159.2z"/>
			<path class="st1" d="M177.8,98.7h5.7v1.6h-7.6V90.1h7.4v1.6h-5.6v7H177.8z M177.7,94.5h5.1V96h-5.1V94.5z"/>
			<path class="st1" d="M195.5,100.4V90.2h4.2c0.9,0,1.6,0.1,2.3,0.5c0.6,0.2,1.1,0.6,1.5,1.3c0.4,0.6,0.6,1.1,0.6,1.9
				c0,0.6-0.2,1.4-0.6,1.9c-0.4,0.6-0.8,0.9-1.5,1.3c-0.6,0.4-1.4,0.5-2.3,0.5h-3.2l0.8-0.8v3.8h-1.9L195.5,100.4L195.5,100.4z
				 M197.4,96.8l-0.8-0.9h3c0.8,0,1.5-0.2,1.9-0.6c0.5-0.4,0.6-0.8,0.6-1.5s-0.2-1.1-0.6-1.5c-0.5-0.4-1-0.6-1.9-0.6h-3.2l0.8-0.9v6
				H197.4L197.4,96.8z M202.2,100.4l-2.5-3.7h1.9l2.5,3.7H202.2z"/>
			<path class="st1" d="M230,100.4V90.2h1.5l6.4,7.9h-0.8v-7.9h1.9v10.2h-1.5l-6.4-7.9h0.8v7.9C231.9,100.4,230,100.4,230,100.4z"/>
			<path class="st1" d="M256.3,100.6c-0.8,0-1.5-0.1-2.2-0.4c-0.6-0.2-1.3-0.6-1.8-1.1s-0.9-1-1.1-1.6s-0.4-1.4-0.4-2.2
				s0.1-1.5,0.5-2c0.4-0.6,0.6-1.1,1.1-1.6s1-0.8,1.8-1c0.6-0.2,1.4-0.4,2.2-0.4c0.8,0,1.5,0.1,2.2,0.4c0.6,0.2,1.3,0.6,1.8,1
				c0.5,0.5,0.9,1,1.1,1.6c0.2,0.6,0.5,1.4,0.5,2c0,0.8-0.1,1.5-0.5,2c-0.4,0.6-0.6,1.1-1.1,1.6s-1,0.8-1.8,1
				C257.8,100.4,257.1,100.6,256.3,100.6z M256.3,98.8c0.5,0,1-0.1,1.4-0.2c0.5-0.2,0.8-0.5,1.1-0.6c0.4-0.2,0.6-0.6,0.6-1.1
				c0.1-0.5,0.2-0.9,0.2-1.4c0-0.6-0.1-1-0.2-1.4c-0.2-0.5-0.5-0.8-0.6-1.1c-0.4-0.4-0.6-0.6-1.1-0.6c-0.5-0.2-0.9-0.2-1.4-0.2
				c-0.5,0-1,0.1-1.4,0.2c-0.5,0.2-0.8,0.5-1.1,0.6c-0.4,0.4-0.6,0.6-0.8,1.1s-0.2,0.9-0.2,1.4s0.1,1,0.2,1.4
				c0.2,0.5,0.5,0.8,0.8,1.1c0.4,0.4,0.6,0.6,1.1,0.6C255.4,98.7,255.8,98.8,256.3,98.8z"/>
			<path class="st1" d="M273.7,100.4V90.2h1.9v10.2C275.6,100.4,273.7,100.4,273.7,100.4z"/>
			<path class="st1" d="M288.3,100.4V90.2h4.5c1,0,2,0.2,2.9,0.6c0.8,0.5,1.5,1,1.9,1.8c0.5,0.7,0.6,1.6,0.6,2.7s-0.2,1.9-0.6,2.7
				c-0.5,0.6-1.1,1.4-1.9,1.8c-0.8,0.5-1.9,0.6-2.9,0.6L288.3,100.4L288.3,100.4z M290.1,98.7h2.4c0.8,0,1.4-0.1,1.9-0.5
				c0.6-0.4,1-0.6,1.3-1.3c0.4-0.6,0.5-1.1,0.5-1.9s-0.1-1.4-0.5-1.9s-0.6-0.9-1.3-1.1c-0.6-0.4-1.3-0.5-1.9-0.5h-2.4V98.7z"/>
			<path class="st1" d="M308.5,100.4l4.6-10.2h1.9l4.6,10.2h-1.9l-3.9-9.1h0.8l-3.9,9.1H308.5z M310.7,98.1l0.6-1.5h5.5l0.5,1.5
				H310.7z"/>
		</g>
	</g>
	<line class="st2" x1="319.1" y1="84.3" x2="74.9" y2="84.3"/>
	<g>
		<path class="st3" d="M106.5,80.3V68.9h4.8c0.5,0,1,0.1,1.4,0.3c0.4,0.1,0.8,0.4,1.1,0.8c0.3,0.4,0.5,0.7,0.7,1.1
			c0.1,0.4,0.3,0.8,0.3,1.2c0,0.5-0.1,1.1-0.3,1.5c-0.3,0.4-0.5,0.8-0.8,1.2c-0.4,0.3-0.8,0.5-1.4,0.7l2.7,4.4h-1.4l-2.6-4.3h-3.3
			v4.3h-1.2C106.5,80.1,106.5,80.3,106.5,80.3z M107.6,75.1h3.7c0.4,0,0.8-0.1,1.2-0.4s0.5-0.5,0.8-1c0.1-0.4,0.3-0.8,0.3-1.2
			s-0.1-0.8-0.3-1.2c-0.3-0.4-0.5-0.7-0.8-1c-0.4-0.3-0.7-0.4-1.1-0.4h-3.6v5.2H107.6z"/>
		<path class="st4" d="M106.5,80.3V68.9h4.8c0.5,0,1,0.1,1.4,0.3c0.4,0.1,0.8,0.4,1.1,0.8c0.3,0.4,0.5,0.7,0.7,1.1
			c0.1,0.4,0.3,0.8,0.3,1.2c0,0.5-0.1,1.1-0.3,1.5c-0.3,0.4-0.5,0.8-0.8,1.2c-0.4,0.3-0.8,0.5-1.4,0.7l2.7,4.4h-1.4l-2.6-4.3h-3.3
			v4.3h-1.2C106.5,80.1,106.5,80.3,106.5,80.3z M107.6,75.1h3.7c0.4,0,0.8-0.1,1.2-0.4s0.5-0.5,0.8-1c0.1-0.4,0.3-0.8,0.3-1.2
			s-0.1-0.8-0.3-1.2c-0.3-0.4-0.5-0.7-0.8-1c-0.4-0.3-0.7-0.4-1.1-0.4h-3.6v5.2H107.6z"/>
	</g>
	<g>
		<polygon class="st3" points="137.1,79.3 137.1,80.3 129.6,80.3 129.6,68.9 137,68.9 137,69.9 130.7,69.9 130.7,74 136.2,74 
			136.2,75 130.7,75 130.7,79.3 		"/>
		<polygon class="st4" points="137.1,79.3 137.1,80.3 129.6,80.3 129.6,68.9 137,68.9 137,69.9 130.7,69.9 130.7,74 136.2,74 
			136.2,75 130.7,75 130.7,79.3 		"/>
	</g>
	<g>
		<path class="st3" d="M159.2,71.1c-0.1-0.1-0.4-0.4-0.5-0.5s-0.4-0.3-0.7-0.4s-0.5-0.1-0.8-0.3c-0.3,0-0.7-0.1-1-0.1
			c-1,0-1.8,0.1-2.2,0.5s-0.7,0.8-0.7,1.5c0,0.4,0.1,0.8,0.3,1.1c0.3,0.3,0.5,0.4,1.1,0.7c0.4,0.1,1.1,0.3,1.8,0.5
			c0.8,0.1,1.5,0.4,2.1,0.5c0.5,0.3,1.1,0.5,1.4,1c0.3,0.4,0.4,1,0.4,1.6c0,0.5-0.1,1-0.3,1.4c-0.1,0.4-0.5,0.7-0.8,1
			c-0.4,0.3-0.8,0.4-1.2,0.5c-0.5,0.1-1.1,0.1-1.6,0.1s-1.1,0-1.6-0.1s-1.1-0.3-1.5-0.5c-0.4-0.3-1-0.5-1.4-1l0.5-1
			c0.1,0.3,0.4,0.4,0.7,0.5s0.5,0.4,1,0.5c0.4,0.1,0.7,0.3,1.1,0.4c0.4,0.1,0.8,0.1,1.2,0.1c1,0,1.6-0.1,2.1-0.5
			c0.5-0.3,0.8-0.8,0.8-1.5c0-0.4-0.1-0.8-0.4-1.1c-0.3-0.3-0.7-0.5-1.1-0.7c-0.5-0.1-1.1-0.4-1.9-0.5c-0.8-0.1-1.5-0.4-2.1-0.5
			c-0.5-0.3-1-0.5-1.2-0.8c-0.3-0.4-0.4-0.8-0.4-1.5s0.1-1.2,0.5-1.8c0.4-0.5,0.8-0.8,1.4-1.1c0.5-0.3,1.4-0.4,2.1-0.4
			c0.5,0,1,0,1.4,0.1s0.8,0.3,1.2,0.4s0.7,0.4,1.1,0.7L159.2,71.1z"/>
		<path class="st4" d="M159.2,71.1c-0.1-0.1-0.4-0.4-0.5-0.5s-0.4-0.3-0.7-0.4s-0.5-0.1-0.8-0.3c-0.3,0-0.7-0.1-1-0.1
			c-1,0-1.8,0.1-2.2,0.5s-0.7,0.8-0.7,1.5c0,0.4,0.1,0.8,0.3,1.1c0.3,0.3,0.5,0.4,1.1,0.7c0.4,0.1,1.1,0.3,1.8,0.5
			c0.8,0.1,1.5,0.4,2.1,0.5c0.5,0.3,1.1,0.5,1.4,1c0.3,0.4,0.4,1,0.4,1.6c0,0.5-0.1,1-0.3,1.4c-0.1,0.4-0.5,0.7-0.8,1
			c-0.4,0.3-0.8,0.4-1.2,0.5c-0.5,0.1-1.1,0.1-1.6,0.1s-1.1,0-1.6-0.1s-1.1-0.3-1.5-0.5c-0.4-0.3-1-0.5-1.4-1l0.5-1
			c0.1,0.3,0.4,0.4,0.7,0.5s0.5,0.4,1,0.5c0.4,0.1,0.7,0.3,1.1,0.4c0.4,0.1,0.8,0.1,1.2,0.1c1,0,1.6-0.1,2.1-0.5
			c0.5-0.3,0.8-0.8,0.8-1.5c0-0.4-0.1-0.8-0.4-1.1c-0.3-0.3-0.7-0.5-1.1-0.7c-0.5-0.1-1.1-0.4-1.9-0.5c-0.8-0.1-1.5-0.4-2.1-0.5
			c-0.5-0.3-1-0.5-1.2-0.8c-0.3-0.4-0.4-0.8-0.4-1.5s0.1-1.2,0.5-1.8c0.4-0.5,0.8-0.8,1.4-1.1c0.5-0.3,1.4-0.4,2.1-0.4
			c0.5,0,1,0,1.4,0.1s0.8,0.3,1.2,0.4s0.7,0.4,1.1,0.7L159.2,71.1z"/>
	</g>
	<g>
		<rect x="178.1" y="68.9" class="st3" width="1.1" height="11.4"/>
		<rect x="178.1" y="68.9" class="st4" width="1.1" height="11.4"/>
	</g>
	<g>
		<path class="st3" d="M196.6,80.3V68.9h3.8c1.2,0,2.2,0.3,3,0.8s1.4,1.2,1.8,2.1c0.4,0.8,0.5,1.8,0.5,2.9s-0.3,2.2-0.7,3
			s-1.1,1.5-1.9,1.9c-0.8,0.4-1.8,0.7-2.9,0.7C200.3,80.3,196.6,80.3,196.6,80.3z M204.7,74.5c0-1-0.1-1.6-0.5-2.5
			c-0.3-0.7-0.8-1.2-1.5-1.6s-1.4-0.5-2.3-0.5h-2.7v9.3h2.7c1,0,1.8-0.3,2.3-0.7s1.1-1,1.5-1.6C204.6,76.3,204.7,75.5,204.7,74.5"/>
		<path class="st4" d="M196.6,80.3V68.9h3.8c1.2,0,2.2,0.3,3,0.8s1.4,1.2,1.8,2.1c0.4,0.8,0.5,1.8,0.5,2.9s-0.3,2.2-0.7,3
			s-1.1,1.5-1.9,1.9c-0.8,0.4-1.8,0.7-2.9,0.7C200.3,80.3,196.6,80.3,196.6,80.3z M204.7,74.5c0-1-0.1-1.6-0.5-2.5
			c-0.3-0.7-0.8-1.2-1.5-1.6s-1.4-0.5-2.3-0.5h-2.7v9.3h2.7c1,0,1.8-0.3,2.3-0.7s1.1-1,1.5-1.6C204.6,76.3,204.7,75.5,204.7,74.5z"
			/>
	</g>
	<g>
		<polygon class="st3" points="227.7,79.3 227.7,80.3 220,80.3 220,68.9 227.6,68.9 227.6,69.9 221.1,69.9 221.1,74 226.7,74 
			226.7,75 221.1,75 221.1,79.3 		"/>
		<polygon class="st4" points="227.7,79.3 227.7,80.3 220,80.3 220,68.9 227.6,68.9 227.6,69.9 221.1,69.9 221.1,74 226.7,74 
			226.7,75 221.1,75 221.1,79.3 		"/>
	</g>
	<g>
		<polygon class="st3" points="242.8,71 242.8,80.3 241.7,80.3 241.7,68.9 242.7,68.9 250.1,78.4 250.1,68.9 251.2,68.9 251.2,80.3 
			250.3,80.3 		"/>
		<polygon class="st4" points="242.8,71 242.8,80.3 241.7,80.3 241.7,68.9 242.7,68.9 250.1,78.4 250.1,68.9 251.2,68.9 251.2,80.3 
			250.3,80.3 		"/>
	</g>
	<g>
		<path class="st3" d="M264.1,74.5c0-0.7,0.1-1.4,0.4-2.1c0.3-0.7,0.5-1.2,1.1-1.8c0.4-0.5,1-1,1.6-1.4c0.7-0.3,1.4-0.5,2.3-0.5
			c1,0,1.9,0.3,2.6,0.7c0.7,0.4,1.2,1.1,1.6,1.8l-0.8,0.5c-0.3-0.5-0.5-1-1-1.2c-0.4-0.3-0.8-0.5-1.2-0.7c-0.4-0.1-0.8-0.1-1.2-0.1
			c-0.7,0-1.2,0.1-1.8,0.4c-0.5,0.3-1,0.7-1.4,1.1s-0.7,1-0.8,1.5s-0.3,1.1-0.3,1.6c0,0.7,0.1,1.2,0.3,1.8c0.3,0.5,0.5,1.1,1,1.5
			c0.4,0.4,0.8,0.8,1.4,1.1c0.5,0.3,1.1,0.4,1.6,0.4c0.4,0,0.8-0.1,1.4-0.3c0.4-0.1,0.8-0.4,1.2-0.7c0.4-0.3,0.7-0.7,1-1.2l1,0.4
			c-0.3,0.5-0.5,1.1-1.1,1.4c-0.5,0.4-1.1,0.7-1.6,1c-0.5,0.1-1.2,0.3-1.8,0.3c-0.8,0-1.5-0.1-2.2-0.5c-0.7-0.3-1.2-0.8-1.6-1.4
			c-0.4-0.5-0.8-1.2-1.1-1.9C264.2,75.9,264.1,75.2,264.1,74.5"/>
		<path class="st4" d="M264.1,74.5c0-0.7,0.1-1.4,0.4-2.1c0.3-0.7,0.5-1.2,1.1-1.8c0.4-0.5,1-1,1.6-1.4c0.7-0.3,1.4-0.5,2.3-0.5
			c1,0,1.9,0.3,2.6,0.7c0.7,0.4,1.2,1.1,1.6,1.8l-0.8,0.5c-0.3-0.5-0.5-1-1-1.2c-0.4-0.3-0.8-0.5-1.2-0.7c-0.4-0.1-0.8-0.1-1.2-0.1
			c-0.7,0-1.2,0.1-1.8,0.4c-0.5,0.3-1,0.7-1.4,1.1s-0.7,1-0.8,1.5s-0.3,1.1-0.3,1.6c0,0.7,0.1,1.2,0.3,1.8c0.3,0.5,0.5,1.1,1,1.5
			c0.4,0.4,0.8,0.8,1.4,1.1c0.5,0.3,1.1,0.4,1.6,0.4c0.4,0,0.8-0.1,1.4-0.3c0.4-0.1,0.8-0.4,1.2-0.7c0.4-0.3,0.7-0.7,1-1.2l1,0.4
			c-0.3,0.5-0.5,1.1-1.1,1.4c-0.5,0.4-1.1,0.7-1.6,1c-0.5,0.1-1.2,0.3-1.8,0.3c-0.8,0-1.5-0.1-2.2-0.5c-0.7-0.3-1.2-0.8-1.6-1.4
			c-0.4-0.5-0.8-1.2-1.1-1.9C264.2,75.9,264.1,75.2,264.1,74.5z"/>
	</g>
	<g>
		<polygon class="st3" points="295.6,79.3 295.6,80.3 287.9,80.3 287.9,68.9 295.4,68.9 295.4,69.9 289.1,69.9 289.1,74 294.6,74 
			294.6,75 289.1,75 289.1,79.3 		"/>
		<polygon class="st4" points="295.6,79.3 295.6,80.3 287.9,80.3 287.9,68.9 295.4,68.9 295.4,69.9 289.1,69.9 289.1,74 294.6,74 
			294.6,75 289.1,75 289.1,79.3 		"/>
	</g>
	<g>
		<path class="st3" d="M317.5,71.1c-0.1-0.1-0.4-0.4-0.5-0.5c-0.3-0.1-0.4-0.3-0.7-0.4c-0.3-0.1-0.5-0.1-0.8-0.3
			c-0.3,0-0.7-0.1-1-0.1c-1,0-1.8,0.1-2.2,0.5s-0.7,0.8-0.7,1.5c0,0.4,0.1,0.8,0.3,1.1c0.3,0.3,0.5,0.4,1.1,0.7
			c0.4,0.1,1.1,0.3,1.8,0.5c0.8,0.1,1.5,0.4,2.1,0.5c0.5,0.3,1.1,0.5,1.4,1c0.3,0.4,0.4,1,0.4,1.6c0,0.5-0.1,1-0.3,1.4
			c-0.1,0.4-0.5,0.7-0.8,1c-0.4,0.3-0.8,0.4-1.2,0.5c-0.5,0.1-1.1,0.1-1.6,0.1s-1.1,0-1.6-0.1s-1.1-0.3-1.5-0.5
			c-0.4-0.3-1-0.5-1.4-1l0.5-1c0.1,0.3,0.4,0.4,0.7,0.5c0.3,0.1,0.5,0.4,1,0.5c0.4,0.1,0.7,0.3,1.1,0.4s0.8,0.1,1.2,0.1
			c1,0,1.6-0.1,2.1-0.5c0.5-0.3,0.8-0.8,0.8-1.5c0-0.4-0.1-0.8-0.4-1.1c-0.3-0.3-0.7-0.5-1.1-0.7c-0.5-0.1-1.1-0.4-1.9-0.5
			s-1.5-0.4-2.1-0.5c-0.5-0.3-1-0.5-1.2-0.8s-0.4-0.8-0.4-1.5s0.1-1.2,0.5-1.8c0.4-0.5,0.8-0.8,1.4-1.1c0.5-0.3,1.4-0.4,2.1-0.4
			c0.5,0,1,0,1.4,0.1s0.8,0.3,1.2,0.4c0.4,0.1,0.7,0.4,1.1,0.7L317.5,71.1z"/>
		<path class="st4" d="M317.5,71.1c-0.1-0.1-0.4-0.4-0.5-0.5c-0.3-0.1-0.4-0.3-0.7-0.4c-0.3-0.1-0.5-0.1-0.8-0.3
			c-0.3,0-0.7-0.1-1-0.1c-1,0-1.8,0.1-2.2,0.5s-0.7,0.8-0.7,1.5c0,0.4,0.1,0.8,0.3,1.1c0.3,0.3,0.5,0.4,1.1,0.7
			c0.4,0.1,1.1,0.3,1.8,0.5c0.8,0.1,1.5,0.4,2.1,0.5c0.5,0.3,1.1,0.5,1.4,1c0.3,0.4,0.4,1,0.4,1.6c0,0.5-0.1,1-0.3,1.4
			c-0.1,0.4-0.5,0.7-0.8,1c-0.4,0.3-0.8,0.4-1.2,0.5c-0.5,0.1-1.1,0.1-1.6,0.1s-1.1,0-1.6-0.1s-1.1-0.3-1.5-0.5
			c-0.4-0.3-1-0.5-1.4-1l0.5-1c0.1,0.3,0.4,0.4,0.7,0.5c0.3,0.1,0.5,0.4,1,0.5c0.4,0.1,0.7,0.3,1.1,0.4s0.8,0.1,1.2,0.1
			c1,0,1.6-0.1,2.1-0.5c0.5-0.3,0.8-0.8,0.8-1.5c0-0.4-0.1-0.8-0.4-1.1c-0.3-0.3-0.7-0.5-1.1-0.7c-0.5-0.1-1.1-0.4-1.9-0.5
			s-1.5-0.4-2.1-0.5c-0.5-0.3-1-0.5-1.2-0.8s-0.4-0.8-0.4-1.5s0.1-1.2,0.5-1.8c0.4-0.5,0.8-0.8,1.4-1.1c0.5-0.3,1.4-0.4,2.1-0.4
			c0.5,0,1,0,1.4,0.1s0.8,0.3,1.2,0.4c0.4,0.1,0.7,0.4,1.1,0.7L317.5,71.1z"/>
	</g>
	<g>
		<g>
			<g>
				<g>
					<g>
						<g>
							<g>
								<defs>
									<path id="SVGID_1_" d="M111.6,30.5h8.4c3.3,0,5.7,0.7,7.4,2.1c1.6,1.4,2.4,3.3,2.4,5.8s-0.8,4.4-2.4,5.7
										c-1.6,1.4-4.1,2.1-7.4,2.1h-8.4V30.5z M106.5,25.9v35.8h5.1V50.8h8.5c3,0,5.7-0.5,7.8-1.5c2.2-1,3.9-2.5,5.1-4.3
										c1.2-1.9,1.8-4.1,1.8-6.7c0-2.7-0.6-4.9-1.8-6.8c-1.2-1.9-2.9-3.3-5.1-4.3c-2.1-0.9-4.8-1.5-7.8-1.5h-13.6V25.9z"/>
								</defs>
								<clipPath id="SVGID_00000127009198015279165370000009922872456426804372_">
									<use xlink:href="#SVGID_1_"  style="overflow:visible;"/>
								</clipPath>
								
									<linearGradient id="SVGID_00000165943213649544466370000004945037647215636664_" gradientUnits="userSpaceOnUse" x1="2837.7473" y1="841.6445" x2="2839.6213" y2="841.6445" gradientTransform="matrix(0.1304 -16.0428 -16.0428 -0.1304 13252.7793 45696.7812)">
									<stop  offset="0" style="stop-color:#816640"/>
									<stop  offset="0.2976" style="stop-color:#816640"/>
									<stop  offset="0.5432" style="stop-color:#A4875D"/>
									<stop  offset="0.805" style="stop-color:#C2A576"/>
									<stop  offset="0.9518" style="stop-color:#CEB080"/>
									<stop  offset="1" style="stop-color:#CEB080"/>
								</linearGradient>
								
									<polygon style="clip-path:url(#SVGID_00000127009198015279165370000009922872456426804372_);fill:url(#SVGID_00000165943213649544466370000004945037647215636664_);" points="
									106.2,61.7 106.5,25.7 135.1,25.9 134.8,61.8 								"/>
							</g>
						</g>
					</g>
				</g>
			</g>
			<g>
				<g>
					<g>
						<g>
							<g>
								<defs>
									<polygon id="SVGID_00000139979559566099413490000003470558811207180211_" points="154.3,25.9 154.3,61.7 180,61.7 180,57 
										159.3,57 159.3,45.7 177,45.7 177,41.2 159.3,41.2 159.3,30.5 179.2,30.5 179.2,25.9 									"/>
								</defs>
								<clipPath id="SVGID_00000142898723653762226170000003265982375249361068_">
									<use xlink:href="#SVGID_00000139979559566099413490000003470558811207180211_"  style="overflow:visible;"/>
								</clipPath>
								
									<linearGradient id="SVGID_00000111907550284356492850000009814810236535258249_" gradientUnits="userSpaceOnUse" x1="2837.8979" y1="839.4551" x2="2839.7725" y2="839.4551" gradientTransform="matrix(0.1308 -16.0839 -16.0839 -0.1308 13297.4463 45815.8203)">
									<stop  offset="0" style="stop-color:#816640"/>
									<stop  offset="0.5065" style="stop-color:#816640"/>
									<stop  offset="0.6725" style="stop-color:#A4875D"/>
									<stop  offset="0.8496" style="stop-color:#C2A576"/>
									<stop  offset="0.9489" style="stop-color:#CEB080"/>
									<stop  offset="1" style="stop-color:#CEB080"/>
								</linearGradient>
								
									<polygon style="clip-path:url(#SVGID_00000142898723653762226170000003265982375249361068_);fill:url(#SVGID_00000111907550284356492850000009814810236535258249_);" points="
									153.9,61.7 154.3,25.7 180.2,25.9 180,61.8 								"/>
							</g>
						</g>
					</g>
				</g>
			</g>
			<g>
				<g>
					<g>
						<g>
							<g>
								<defs>
									<path id="SVGID_00000109738655782662160780000004170797795927258025_" d="M213.6,32.1l7.2,16h-14.3L213.6,32.1z
										 M211.3,25.9l-16.4,35.8h5.4l4.1-9.2h18.2l4.1,9.2h5.4l-16.4-35.8C215.9,25.9,211.3,25.9,211.3,25.9z"/>
								</defs>
								<clipPath id="SVGID_00000047770168136994251020000012007904869457303426_">
									<use xlink:href="#SVGID_00000109738655782662160780000004170797795927258025_"  style="overflow:visible;"/>
								</clipPath>
								
									<linearGradient id="SVGID_00000068657641013222149730000016580340065309568398_" gradientUnits="userSpaceOnUse" x1="2837.8611" y1="837.8267" x2="2839.7361" y2="837.8267" gradientTransform="matrix(0.1306 -16.0689 -16.0689 -0.1306 13305.7627 45772.3945)">
									<stop  offset="0" style="stop-color:#816640"/>
									<stop  offset="0.3311" style="stop-color:#816640"/>
									<stop  offset="0.5637" style="stop-color:#A4875D"/>
									<stop  offset="0.8118" style="stop-color:#C2A576"/>
									<stop  offset="0.9509" style="stop-color:#CEB080"/>
									<stop  offset="1" style="stop-color:#CEB080"/>
								</linearGradient>
								
									<polygon style="clip-path:url(#SVGID_00000047770168136994251020000012007904869457303426_);fill:url(#SVGID_00000068657641013222149730000016580340065309568398_);" points="
									194.7,61.7 195,25.6 232.5,25.9 232.2,61.9 								"/>
							</g>
						</g>
					</g>
				</g>
			</g>
			<g>
				<g>
					<g>
						<g>
							<g>
								<defs>
									<polygon id="SVGID_00000108269376377359581610000017026477227797184680_" points="268.6,25.9 249.5,45.6 249.5,25.9 
										244.5,25.9 244.5,61.7 249.5,61.7 249.5,52.2 255.8,45.8 269.5,61.7 275.7,61.7 259.3,42.2 274.8,25.9 									"/>
								</defs>
								<clipPath id="SVGID_00000152259971792057718560000001665458745118272956_">
									<use xlink:href="#SVGID_00000108269376377359581610000017026477227797184680_"  style="overflow:visible;"/>
								</clipPath>
								
									<linearGradient id="SVGID_00000031889965148984315040000003034034771446694836_" gradientUnits="userSpaceOnUse" x1="2837.989" y1="835.8537" x2="2839.8635" y2="835.8537" gradientTransform="matrix(0.1309 -16.1035 -16.1035 -0.1309 13348.5625 45872.5938)">
									<stop  offset="0" style="stop-color:#816640"/>
									<stop  offset="0.4339" style="stop-color:#816640"/>
									<stop  offset="0.627" style="stop-color:#A4875D"/>
									<stop  offset="0.8328" style="stop-color:#C2A576"/>
									<stop  offset="0.9482" style="stop-color:#CEB080"/>
									<stop  offset="1" style="stop-color:#CEB080"/>
								</linearGradient>
								
									<polygon style="clip-path:url(#SVGID_00000152259971792057718560000001665458745118272956_);fill:url(#SVGID_00000031889965148984315040000003034034771446694836_);" points="
									244.1,61.7 244.5,25.6 276,25.9 275.7,61.9 								"/>
							</g>
						</g>
					</g>
				</g>
			</g>
			<g>
				<g>
					<g>
						<g>
							<g>
								<defs>
									<path id="SVGID_00000101095838311158892970000008504440211015164291_" d="M299.9,27c-2,0.9-3.5,2.1-4.5,3.7
										c-0.9,1.5-1.5,3.3-1.5,5.1c0,2,0.4,3.6,1.3,4.9c0.9,1.2,2,2.2,3.3,2.9s2.7,1.3,4.3,1.7c1.5,0.4,3,0.8,4.5,1.2
										c1.5,0.3,2.8,0.8,4,1.2c1.1,0.4,2.1,1,2.7,1.8c0.7,0.7,0.9,1.6,0.9,2.7c0,0.9-0.3,1.8-0.9,2.7c-0.5,0.8-1.5,1.5-2.7,1.9
										c-1.3,0.5-2.9,0.8-5,0.8s-4.2-0.4-6.2-1.1c-2-0.8-3.5-1.7-4.6-2.8l-0.7-0.7l-2.1,4.1l0.3,0.3c1.4,1.4,3.3,2.5,5.7,3.4
										c2.4,0.9,5,1.3,7.5,1.3c3,0,5.6-0.4,7.5-1.4s3.5-2.1,4.5-3.7c1-1.5,1.5-3.3,1.5-5.1c0-2-0.4-3.5-1.3-4.8
										c-0.9-1.2-2-2.1-3.3-2.9c-1.3-0.7-2.7-1.3-4.3-1.7c-1.5-0.4-3-0.9-4.5-1.2s-2.8-0.8-4-1.2c-1.1-0.4-2.1-1-2.7-1.7
										s-0.9-1.5-0.9-2.7c0-1,0.3-2,0.9-2.7c0.5-0.8,1.5-1.5,2.7-2c1.3-0.5,2.9-0.8,4.8-0.8c1.5,0,3,0.3,4.6,0.7
										c1.5,0.4,3.1,1.1,4.5,2.1l0.7,0.5l1.8-4.2l-0.5-0.3c-1.5-1-3.2-1.8-5.1-2.3c-2-0.5-3.9-0.9-5.9-0.9
										C304.4,25.6,301.9,26,299.9,27"/>
								</defs>
								<clipPath id="SVGID_00000119097436727803584850000016413910466073909142_">
									<use xlink:href="#SVGID_00000101095838311158892970000008504440211015164291_"  style="overflow:visible;"/>
								</clipPath>
								
									<linearGradient id="SVGID_00000034779285689830954330000006998668292049648554_" gradientUnits="userSpaceOnUse" x1="2838.5117" y1="832.2679" x2="2840.3862" y2="832.2679" gradientTransform="matrix(0.1322 -16.2606 -16.2606 -0.1322 13464.3574 46327.6953)">
									<stop  offset="0" style="stop-color:#816640"/>
									<stop  offset="0.3716" style="stop-color:#816640"/>
									<stop  offset="0.5778" style="stop-color:#A4875D"/>
									<stop  offset="0.7977" style="stop-color:#C2A576"/>
									<stop  offset="0.9209" style="stop-color:#CEB080"/>
									<stop  offset="1" style="stop-color:#CEB080"/>
								</linearGradient>
								
									<polygon style="clip-path:url(#SVGID_00000119097436727803584850000016413910466073909142_);fill:url(#SVGID_00000034779285689830954330000006998668292049648554_);" points="
									292.7,61.9 293.1,25.4 320.5,25.6 320.1,62.2 								"/>
							</g>
						</g>
					</g>
				</g>
			</g>
		</g>
		<g>
			<g>
				<g>
					<g>
						<g>
							<defs>
								<path id="SVGID_00000090256649479086810660000002363805047662918584_" d="M32,26.7l-3.7,8.7h48.7
									c-5.3,9.3-27,43.2-41.8,64.1l-0.6,0.7h13.2l0.1-0.3c6.8-10.6,17.5-32.6,30.9-60.3l5.4-11.2v-1.9L32,26.7L32,26.7z"/>
							</defs>
							<clipPath id="SVGID_00000082334942428782367500000011932701513105584303_">
								<use xlink:href="#SVGID_00000090256649479086810660000002363805047662918584_"  style="overflow:visible;"/>
							</clipPath>
							
								<linearGradient id="SVGID_00000153666141507673546930000007730146053484686218_" gradientUnits="userSpaceOnUse" x1="2869.3652" y1="682.2687" x2="2870.8401" y2="682.2687" gradientTransform="matrix(45.235 -87.1921 -87.1921 -45.235 -70291.2266 281189.5)">
								<stop  offset="0" style="stop-color:#816640"/>
								<stop  offset="0.5203" style="stop-color:#816640"/>
								<stop  offset="0.6159" style="stop-color:#856A43"/>
								<stop  offset="0.7099" style="stop-color:#91754D"/>
								<stop  offset="0.8032" style="stop-color:#A4885D"/>
								<stop  offset="0.8956" style="stop-color:#C0A274"/>
								<stop  offset="0.9347" style="stop-color:#CEB080"/>
								<stop  offset="1" style="stop-color:#CEB080"/>
							</linearGradient>
							
								<polygon style="clip-path:url(#SVGID_00000082334942428782367500000011932701513105584303_);fill:url(#SVGID_00000153666141507673546930000007730146053484686218_);" points="
								-1.8,84.7 40.2,3.7 114.5,42.4 72.4,123.3 							"/>
						</g>
					</g>
				</g>
			</g>
		</g>
	</g>
</g>
</svg>
